<svg width="36" height="36" viewBox="0 0 36 36" fill="none" xmlns="http://www.w3.org/2000/svg">
<circle cx="18" cy="18" r="17.5" stroke="white"/>
<path d="M13.0096 18.1194H15.0923V26.6935C15.0923 26.8628 15.2295 27 15.3987 27H18.93C19.0993 27 19.2365 26.8628 19.2365 26.6935V18.1598H21.6307C21.7864 18.1598 21.9174 18.043 21.9352 17.8883L22.2988 14.7318C22.3088 14.6449 22.2813 14.5579 22.2232 14.4928C22.165 14.4276 22.0818 14.3903 21.9944 14.3903H19.2366V12.4116C19.2366 11.8151 19.5578 11.5126 20.1913 11.5126C20.2816 11.5126 21.9944 11.5126 21.9944 11.5126C22.1637 11.5126 22.3009 11.3754 22.3009 11.2062V8.30872C22.3009 8.13944 22.1637 8.00227 21.9944 8.00227H19.5094C19.4919 8.00141 19.453 8 19.3956 8C18.9644 8 17.4657 8.08464 16.2818 9.17377C14.9701 10.3807 15.1524 11.8258 15.196 12.0764V14.3902H13.0096C12.8403 14.3902 12.7031 14.5274 12.7031 14.6966V17.8129C12.7031 17.9822 12.8403 18.1194 13.0096 18.1194Z" fill="white"/>
</svg>
