<svg width="48" height="49" viewBox="0 0 48 49" fill="none" xmlns="http://www.w3.org/2000/svg">
<path fill-rule="evenodd" clip-rule="evenodd" d="M0 24.65C0 11.4687 10.7452 0.783203 24 0.783203C37.2548 0.783203 48 11.4687 48 24.65C48 37.8313 37.2548 48.5168 24 48.5168C10.7452 48.5168 0 37.8313 0 24.65Z" fill="#DA0E17"/>
<path d="M26.3779 16.3281C25.5408 17.1606 25.5408 18.1889 26.3779 19.0213C27.018 19.6579 27.6089 20.2945 28.249 20.8821C28.446 21.029 28.446 21.1759 28.3475 21.4208C28.1013 21.8125 27.9536 22.2532 27.7074 22.6449C26.5749 24.4567 25.0977 25.9747 23.4235 27.3458C22.5865 28.0313 21.7002 28.619 20.7154 29.0107C20.5184 29.1086 20.3707 29.0597 20.223 28.9128C19.6321 28.2762 18.992 27.6886 18.3519 27.052C17.4656 26.1706 16.4808 26.1706 15.5945 27.052C15.1021 27.5417 14.6097 28.0313 14.1173 28.521C13.6249 29.0107 13.0833 29.5493 12.5909 30.039C11.803 30.8715 11.803 31.8998 12.5909 32.7322C13.231 33.3688 13.8711 33.9564 14.462 34.593C15.0528 35.1806 15.7422 35.4744 16.53 35.5723C17.8595 35.6703 19.0905 35.3275 20.3215 34.8868C22.8327 33.9564 25.0484 32.5363 27.1165 30.8225C29.8739 28.521 32.0897 25.7299 33.6653 22.547C34.3547 21.078 34.8963 19.609 34.9948 17.9441C35.044 16.8178 34.7486 15.8385 33.9115 15.055C33.3207 14.5163 32.779 13.9287 32.1881 13.3411C31.3511 12.5087 30.3171 12.5087 29.4307 13.3411C28.3967 14.3205 27.3627 15.3488 26.3779 16.3281Z" fill="white"/>
</svg>
