<svg width="36" height="36" viewBox="0 0 36 36" fill="none" xmlns="http://www.w3.org/2000/svg">
<g clip-path="url(#clip0_0_1290)">
<path fill-rule="evenodd" clip-rule="evenodd" d="M25.9341 19.6909C26.6639 20.4034 27.4341 21.0738 28.0887 21.8581C28.3778 22.2067 28.6515 22.5663 28.8609 22.9708C29.1577 23.5458 28.8889 24.1786 28.3733 24.2129L25.1683 24.2115C24.3417 24.2801 23.6822 23.9473 23.1278 23.3821C22.684 22.9301 22.2731 22.4491 21.8464 21.9819C21.6715 21.7909 21.4884 21.6112 21.2696 21.4692C20.8321 21.1852 20.4523 21.2721 20.2023 21.7284C19.9477 22.1926 19.8899 22.7065 19.8649 23.2238C19.8306 23.9785 19.6024 24.1769 18.8443 24.2114C17.2242 24.2878 15.6866 24.0427 14.2582 23.2254C12.9989 22.5049 12.0224 21.4877 11.1724 20.3362C9.51747 18.0939 8.25014 15.63 7.11111 13.0971C6.85472 12.5264 7.04222 12.2201 7.67188 12.2092C8.71745 12.1889 9.76288 12.1904 10.8097 12.2078C11.2346 12.214 11.516 12.4577 11.68 12.8592C12.2457 14.2501 12.9379 15.5735 13.8067 16.8001C14.0381 17.1267 14.274 17.4533 14.61 17.6831C14.9817 17.9376 15.2647 17.8533 15.4395 17.4392C15.5505 17.1767 15.5991 16.8939 15.6241 16.6128C15.7069 15.6454 15.7178 14.6797 15.5725 13.7157C15.4833 13.1141 15.1445 12.7247 14.5442 12.6108C14.2378 12.5528 14.2834 12.4388 14.4318 12.2639C14.6894 11.9624 14.9317 11.7747 15.4147 11.7747H19.0368C19.6071 11.8872 19.7337 12.1434 19.8118 12.7172L19.8149 16.7406C19.8087 16.9628 19.9258 17.6219 20.3259 17.7689C20.6461 17.8736 20.8572 17.6174 21.0493 17.4144C21.9166 16.4939 22.5355 15.4061 23.0885 14.2798C23.3339 13.7845 23.5449 13.2701 23.7494 12.7562C23.9009 12.3748 24.1386 12.1872 24.5682 12.1955L28.0543 12.1986C28.1577 12.1986 28.2623 12.2001 28.3624 12.2172C28.9498 12.3174 29.1108 12.5701 28.9294 13.1437C28.6435 14.0437 28.0873 14.7937 27.5434 15.5472C26.9621 16.3516 26.3403 17.1285 25.7638 17.9377C25.2341 18.6767 25.2761 19.0491 25.9341 19.6909Z" fill="#FDFDFD"/>
</g>
<circle cx="18" cy="18" r="17.5" stroke="white"/>
<defs>
<clipPath id="clip0_0_1290">
<rect width="22" height="22" fill="white" transform="translate(7 7)"/>
</clipPath>
</defs>
</svg>
