<svg width="162" height="22" viewBox="0 0 162 22" fill="none" xmlns="http://www.w3.org/2000/svg">
<g clip-path="url(#clip0_0_1295)">
<path fill-rule="evenodd" clip-rule="evenodd" d="M29.4083 11.5878L29.2383 13.4351L28.7284 17.9695C27.8784 18.1374 26.8585 18.3053 26.0085 18.3053C24.9886 18.4733 23.9687 18.1374 23.1187 17.4656C22.4387 16.7939 22.0988 15.9542 22.2688 15.2824C22.2688 13.4351 23.2887 12.4275 25.4986 11.9237C27.7084 11.5878 29.4083 11.4198 29.4083 11.5878ZM35.8679 2.18321C34.508 0.671756 31.9582 0 28.0484 0C24.9886 0 22.0988 0.503817 19.2089 1.51145C19.039 1.51145 18.869 1.84733 18.869 2.01527L19.3789 5.20611C19.3789 5.20611 19.3789 5.37405 19.5489 5.37405H19.7189C21.0788 5.03817 22.2688 4.70229 23.6287 4.53435C26.6885 4.03053 28.5584 4.19847 29.4083 5.03817C29.9183 5.54198 30.0883 6.38168 29.9183 7.05343V7.72519C29.9183 7.72519 26.0085 8.22901 23.6287 8.73282C21.7588 8.90076 19.8889 9.57252 18.359 10.5802C15.9791 12.2595 14.9592 15.1145 15.6392 17.8015C16.1491 19.8168 17.849 22.3359 24.1386 22.3359H24.6486C34.168 22.3359 35.3579 20.6565 35.8679 17.2977L36.3779 12.7634L37.0578 6.8855C37.2278 5.03817 36.8879 3.35878 35.8679 2.18321Z" fill="white"/>
<path fill-rule="evenodd" clip-rule="evenodd" d="M108.623 8.73282L108.793 7.89313C108.793 6.71756 109.303 5.70992 110.153 5.03817C110.833 4.53435 111.683 4.19847 112.533 4.19847C113.213 4.19847 114.063 4.36641 114.573 4.70229C115.253 5.20611 115.763 6.0458 115.763 7.05343C115.763 7.55725 115.423 9.9084 114.913 13.9389V14.1069C114.913 15.1145 114.403 16.1221 113.723 16.9618C113.043 17.6336 112.193 17.9695 111.343 17.9695C110.493 18.1374 109.813 17.9695 109.133 17.6336C108.453 16.7939 107.943 15.9542 107.773 15.1145C107.773 14.4427 108.283 10.7481 108.623 8.73282ZM100.974 14.1069C100.804 15.2824 100.974 16.458 101.314 17.6336C102.674 21.3282 107.604 21.8321 110.493 21.8321C115.593 21.8321 118.993 20.3206 120.693 17.6336C121.203 16.7939 121.883 14.4427 122.733 8.06107V7.89313C122.903 6.71756 122.733 5.54198 122.563 4.53435C121.373 1.00763 117.293 0.167939 114.063 0H113.383C108.283 0 104.884 1.51145 103.184 4.19847C101.654 6.54962 100.974 14.1069 100.974 14.1069Z" fill="white"/>
<path fill-rule="evenodd" clip-rule="evenodd" d="M100.464 0.167969H100.294H97.2339C95.534 0.167969 94.004 0.839724 93.1541 2.35117L85.5046 11.7558L85.6746 11.2519L87.0345 0.671786V0.503847C87.0345 0.503847 86.8645 0.335908 86.8645 0.503847H80.5749C80.4049 0.503847 80.2349 0.671786 80.2349 0.839724L77.6851 21.4962V21.6642H77.855H81.0848C82.7847 21.6642 84.3146 20.8245 85.1646 19.4809L92.6441 9.90843L92.4741 10.4122L91.1142 21.3283V21.4962L91.2842 21.6642H97.5738C97.7438 21.6642 97.9138 21.4962 97.9138 21.3283L100.464 0.671786C100.634 0.335908 100.634 0.335908 100.464 0.167969Z" fill="white"/>
<path fill-rule="evenodd" clip-rule="evenodd" d="M145.681 0.167969H145.511L139.051 1.00766C138.881 1.00766 138.711 1.1756 138.711 1.34354L137.691 8.39698V8.73285H131.572L132.592 0.335908V0.167969H132.422L125.962 1.00766C125.792 1.00766 125.622 1.1756 125.622 1.34354L123.072 21.3283V21.4962L123.242 21.6642H129.532C129.702 21.6642 129.872 21.4962 129.872 21.3283L130.892 13.2672H137.011L135.991 21.3283V21.4962L136.161 21.6642H137.691C140.581 21.6642 142.791 21.3283 143.131 17.9695L145.341 0.503847C145.681 0.167969 145.681 0.167969 145.681 0.167969Z" fill="white"/>
<path fill-rule="evenodd" clip-rule="evenodd" d="M78.3653 0.503809V0.33587C78.3653 0.33587 78.1953 0.167931 78.1953 0.33587H54.3968C53.8868 0.33587 53.5468 0.503809 53.2069 0.839687L46.5773 8.90076H45.5573L46.5773 0.503809V0.33587H46.4073L39.9477 1.17556C39.7777 1.17556 39.6077 1.3435 39.6077 1.51144L37.0579 21.4962V21.6641L37.2279 21.8321H43.5175C43.6875 21.8321 43.8574 21.6641 43.8574 21.4962L44.8774 13.4351H45.8973L50.487 21.4962C50.657 21.6641 50.827 21.8321 50.997 21.8321H57.7966C57.9666 21.8321 57.9666 21.8321 57.9666 21.6641L51.847 11.4198L56.9466 5.54198H64.5962L62.5563 21.6641V21.8321L62.7263 22H69.0159C69.1859 22 69.3559 21.8321 69.3559 21.6641L71.3957 5.03816H77.5154C77.6854 5.03816 77.8553 4.87022 77.8553 4.70228L78.3653 0.503809Z" fill="white"/>
<path fill-rule="evenodd" clip-rule="evenodd" d="M14.7896 0.167969H8.83996C8.49998 0.167969 7.99001 0.335908 7.82002 0.671786C7.82002 0.671786 0.510475 9.40461 0.340486 9.74049C0.000506714 9.90843 0.000506714 10.4122 0.170496 10.7481L5.95014 20.8245C6.12013 21.1603 6.46011 21.3283 6.97008 21.3283H12.2398C12.5797 21.3283 12.7497 21.1603 12.5797 20.8245L6.80009 10.7481L15.2996 0.503847C15.2996 0.335908 15.1296 0.167969 14.7896 0.167969Z" fill="white"/>
<path fill-rule="evenodd" clip-rule="evenodd" d="M147.041 21.4962H152.99C153.33 21.4962 153.84 21.3283 154.01 20.9924C154.01 20.9924 161.32 12.2596 161.49 12.0917C161.83 11.7558 161.83 11.252 161.66 10.9161L155.88 0.839754C155.71 0.503876 155.37 0.335938 154.86 0.335938H149.591C149.251 0.335938 149.081 0.503876 149.251 0.839754L155.03 10.9161L146.531 21.1604C146.701 21.1604 146.701 21.4962 147.041 21.4962Z" fill="white"/>
</g>
<defs>
<clipPath id="clip0_0_1295">
<rect width="162" height="22" fill="white"/>
</clipPath>
</defs>
</svg>
