<svg width="260" height="53" viewBox="0 0 260 53" fill="none" xmlns="http://www.w3.org/2000/svg">
<g clip-path="url(#clip0_0_174)">
<path d="M29.3 0H48.3C50.8 0 52.8 2 52.8 4.6V23.2C52.8 26.8 51.3 30.4 48.7 33.1L33 48.8C30.5 51.3 27.1 52.8 23.6 52.8H4.5C2 52.8 0 50.8 0 48.2V29.6C0 26 1.5 22.4 4.1 19.8L19.9 4C22.4 1.4 25.8 0 29.3 0Z" fill="#DA0E17"/>
<path d="M171.4 24.9L169.9 21.3H162L160.5 24.9H159L165.1 10H166.7L172.8 24.9H171.4ZM166 11.4L162.5 20.1H169.5L166 11.4Z" fill="#DA0E17"/>
<path d="M174.4 19.5004C174.4 16.3004 176.5 13.9004 179.7 13.9004C181.6 13.9004 182.7 14.6004 183.5 15.8004L182.7 16.5004C181.9 15.4004 181 15.0004 179.7 15.0004C177.2 15.0004 175.6 17.0004 175.6 19.6004C175.6 22.2004 177.1 24.2004 179.7 24.2004C180.9 24.2004 181.9 23.8004 182.7 22.7004L183.5 23.4004C182.6 24.5004 181.6 25.3004 179.7 25.3004C176.5 25.2004 174.4 22.6004 174.4 19.5004Z" fill="#DA0E17"/>
<path d="M185.4 19.5004C185.4 16.3004 187.5 13.9004 190.7 13.9004C192.6 13.9004 193.7 14.6004 194.5 15.8004L193.7 16.5004C192.9 15.4004 192 15.0004 190.7 15.0004C188.2 15.0004 186.6 17.0004 186.6 19.6004C186.6 22.2004 188.1 24.2004 190.7 24.2004C191.9 24.2004 192.9 23.8004 193.7 22.7004L194.5 23.4004C193.6 24.5004 192.6 25.3004 190.7 25.3004C187.5 25.2004 185.4 22.6004 185.4 19.5004Z" fill="#DA0E17"/>
<path d="M197.1 24.8996V14.0996H198.2V23.0996L204.4 14.0996H205.5V24.8996H204.4V15.7996L198.2 24.8996H197.1Z" fill="#DA0E17"/>
<path d="M208.5 19.5004C208.5 16.3004 210.6 13.9004 213.8 13.9004C215.7 13.9004 216.8 14.6004 217.6 15.8004L216.8 16.5004C216 15.4004 215.1 15.0004 213.8 15.0004C211.3 15.0004 209.7 17.0004 209.7 19.6004C209.7 22.2004 211.2 24.2004 213.8 24.2004C215 24.2004 216 23.8004 216.8 22.7004L217.6 23.4004C216.7 24.5004 215.7 25.3004 213.8 25.3004C210.5 25.2004 208.5 22.6004 208.5 19.5004Z" fill="#DA0E17"/>
<path d="M222.1 24.8996V15.0996H219V14.0996H226.4V15.0996H223.3V24.8996H222.1Z" fill="#DA0E17"/>
<path d="M228.2 19.5004C228.2 16.4004 230.4 13.9004 233.4 13.9004C236.7 13.9004 238.5 16.5004 238.5 19.6004V19.9004H229.5C229.6 22.2004 231.2 24.2004 233.7 24.2004C235.1 24.2004 236.3 23.7004 237.2 22.7004L237.8 23.4004C236.7 24.5004 235.4 25.1004 233.6 25.1004C230.5 25.2004 228.2 22.8004 228.2 19.5004ZM233.4 14.8004C230.9 14.8004 229.6 17.0004 229.5 18.9004H237.4C237.3 17.1004 236.1 14.8004 233.4 14.8004Z" fill="#DA0E17"/>
<path d="M241.5 24.8996V14.0996H242.6V18.7996H248.8V14.0996H249.9V24.8996H248.8V19.7996H242.6V24.8996H241.5Z" fill="#DA0E17"/>
<path d="M255.5 24.8996V15.0996H252.3V14.0996H259.9V15.0996H256.7V24.8996H255.5Z" fill="#DA0E17"/>
<path d="M68.2002 24.9998V10.2998H78.6002V12.9998H71.4002V24.9998H68.2002Z" fill="#DA0E17"/>
<path d="M79 22.8998C79.9 22.8998 80.4 21.9998 80.7 19.3998L81.4 14.2998H90V24.9998H87.2V16.7998H83.9L83.5 19.7998C83.1 23.3998 81.8 25.1998 79 25.1998V22.8998Z" fill="#DA0E17"/>
<path d="M99.1001 24.9996V23.8996C98.4001 24.7996 97.1001 25.2996 95.8001 25.2996C94.1001 25.2996 92.1001 24.1996 92.1001 21.7996C92.1001 19.2996 94.1001 18.3996 95.8001 18.3996C97.2001 18.3996 98.5001 18.7996 99.1001 19.6996V18.2996C99.1001 17.1996 98.2001 16.4996 96.8001 16.4996C95.7001 16.4996 94.6001 16.8996 93.7001 17.6996L92.6001 15.7996C93.9001 14.6996 95.6001 14.0996 97.2001 14.0996C99.6001 14.0996 101.8 15.0996 101.8 18.0996V24.9996H99.1001ZM99.1001 22.3996V21.0996C98.7001 20.4996 97.7001 20.1996 96.9001 20.1996C95.8001 20.1996 94.9001 20.7996 94.9001 21.7996C94.9001 22.7996 95.8001 23.2996 96.9001 23.2996C97.8001 23.2996 98.7001 22.9996 99.1001 22.3996Z" fill="#DA0E17"/>
<path d="M104.7 24.9998V14.2998H111.4C113.6 14.2998 114.7 15.5998 114.7 16.9998C114.7 18.2998 113.9 19.0998 112.9 19.3998C114.1 19.5998 114.9 20.6998 114.9 21.9998C114.9 23.5998 113.8 24.8998 111.6 24.8998H104.7V24.9998ZM111.8 17.5998C111.8 16.9998 111.4 16.6998 110.8 16.6998H107.5V18.4998H110.8C111.4 18.3998 111.8 17.9998 111.8 17.5998ZM112 21.6998C112 21.0998 111.6 20.6998 110.9 20.6998H107.4V22.6998H110.9C111.6 22.6998 112 22.2998 112 21.6998Z" fill="#DA0E17"/>
<path d="M116.9 19.1998C116.9 14.0998 118.8 11.6998 122.4 11.1998C124.2 10.9998 124.8 10.5998 124.8 10.2998H127.7C127.7 12.2998 125 12.9998 123.3 13.0998C120.8 13.3998 119.8 14.4998 119.5 15.7998C120.4 14.6998 121.7 14.0998 123.1 14.0998C126.1 14.0998 128.1 16.6998 128.1 19.6998C128.1 22.6998 126.1 25.2998 122.5 25.2998C119 25.1998 116.9 22.5998 116.9 19.1998ZM125.2 19.5998C125.2 17.9998 124.2 16.5998 122.5 16.5998C120.8 16.5998 119.8 17.9998 119.8 19.5998C119.8 21.2998 120.8 22.7998 122.5 22.7998C124.2 22.7998 125.2 21.2998 125.2 19.5998Z" fill="#DA0E17"/>
<path d="M130.3 26.6004C130.5 26.7004 130.9 26.8004 131.2 26.8004C131.9 26.8004 132.4 26.6004 132.7 26.1004L133.1 25.2004L128.8 14.4004H131.8L134.6 21.8004L137.4 14.4004H140.4L135.4 26.8004C134.6 28.8004 133.2 29.3004 131.4 29.4004C131.1 29.4004 130.3 29.3004 130 29.3004L130.3 26.6004Z" fill="#DA0E17"/>
<path d="M148.1 24.9998L145.6 21.3998L143.2 24.9998H140.1L143.9 19.4998L140.4 14.2998H143.5L145.6 17.5998L147.8 14.2998H150.9L147.4 19.4998L151.2 24.9998H148.1Z" fill="#DA0E17"/>
<path d="M25.4 19.1996L24.7 19.9996C23.7 21.0996 22.4 22.9996 22.4 25.0996L22.5 39.2996C22.5 41.5996 22.1 44.0996 21.3 45.0996C19.3 47.2996 18.6 43.1996 19.8 40.4996C19.8 40.4996 14.7 42.6996 16.2 46.0996C17.1 48.3996 20.2 47.6996 22.5 45.0996C23.7 43.8996 25 42.5996 26 41.2996C26.4 40.5996 27.2 40.0996 27.2 37.2996V23.3996C27.3 22.1996 27.4 21.0996 27.8 20.0996L33.9 22.2996C39.3 23.6996 42.4 23.1996 45.8 19.9996C50.5 15.4996 48.9 10.6996 45.4 10.0996C44.3 9.99961 43.4 10.2996 42.6 11.0996C42 11.7996 40.3 13.8996 40.3 13.8996C46.1 11.8996 47.9 18.0996 44.6 19.7996C41.8 21.0996 29.8 15.6996 26.6 14.4996C18 11.1996 14.4 15.5996 12.7 17.9996C9.10003 23.1996 10.4 28.9996 14.1 29.3996C17.2 29.6996 18.7 27.0996 20.8 22.6996C14.2 27.7996 11.8 23.5996 12.9 20.4996C13.5 18.5996 16 16.9996 19.5 17.3996C19.6 17.3996 19.8 17.3996 19.9 17.4996C20.6 17.5996 21.3 17.6996 21.9 17.8996C22.3 18.0996 23.6 18.5996 25.4 19.1996Z" fill="white"/>
<path d="M73.4998 45.4002L72.7998 43.5002H68.6998L67.9998 45.4002H66.7998L70.0998 37.2002H71.3998L74.6998 45.4002H73.4998ZM70.6998 38.2002L68.9998 42.7002H72.4998L70.6998 38.2002Z" fill="#08090A"/>
<path d="M75.3001 46.9004C75.4001 47.0004 75.7001 47.0004 75.8001 47.0004C76.2001 47.0004 76.5001 46.9004 76.7001 46.4004L77.1001 45.5004L74.6001 39.4004H75.6001L77.6001 44.3004L79.6001 39.4004H80.6001L77.6001 46.6004C77.2001 47.5004 76.6001 47.8004 75.9001 47.8004C75.7001 47.8004 75.4001 47.7004 75.2001 47.7004L75.3001 46.9004Z" fill="#08090A"/>
<path d="M82.4998 45.4004V40.2004H80.7998V39.4004H85.1998V40.2004H83.4998V45.4004H82.4998Z" fill="#08090A"/>
<path d="M86.1001 42.4002C86.1001 40.6002 87.3001 39.2002 89.1001 39.2002C90.2001 39.2002 90.8001 39.6002 91.3001 40.3002L90.7001 40.9002C90.2001 40.3002 89.7001 40.0002 89.0001 40.0002C87.7001 40.0002 87.0001 41.0002 87.0001 42.3002C87.0001 43.6002 87.8001 44.6002 89.0001 44.6002C89.6001 44.6002 90.1001 44.4002 90.5001 43.8002L91.1001 44.4002C90.7001 45.0002 90.0001 45.5002 88.9001 45.5002C87.3001 45.5002 86.1001 44.2002 86.1001 42.4002Z" fill="#08090A"/>
<path d="M92.2998 42.4002C92.2998 40.7002 93.3998 39.2002 95.2998 39.2002C97.0998 39.2002 98.2998 40.6002 98.2998 42.4002C98.2998 44.2002 97.1998 45.6002 95.2998 45.6002C93.3998 45.5002 92.2998 44.1002 92.2998 42.4002ZM97.0998 42.4002C97.0998 41.2002 96.3998 40.1002 95.0998 40.1002C93.7998 40.1002 93.0998 41.2002 93.0998 42.4002C93.0998 43.6002 93.7998 44.7002 95.0998 44.7002C96.4998 44.7002 97.0998 43.6002 97.0998 42.4002Z" fill="#08090A"/>
<path d="M100.6 44.4998V47.6998H99.7002V39.4998H100.6V40.3998C101 39.7998 101.8 39.2998 102.6 39.2998C104.1 39.2998 105.3 40.4998 105.3 42.4998C105.3 44.3998 104.2 45.6998 102.6 45.6998C101.8 45.4998 101 45.0998 100.6 44.4998ZM104.3 42.3998C104.3 41.0998 103.6 40.0998 102.4 40.0998C101.7 40.0998 100.9 40.4998 100.6 40.9998V43.6998C100.9 44.1998 101.7 44.6998 102.4 44.6998C103.6 44.6998 104.3 43.6998 104.3 42.3998Z" fill="#08090A"/>
<path d="M106.4 42.4002C106.4 40.6002 107.6 39.2002 109.4 39.2002C110.5 39.2002 111.1 39.6002 111.6 40.3002L111 40.9002C110.6 40.3002 110.1 40.1002 109.5 40.1002C108.2 40.1002 107.5 41.1002 107.5 42.4002C107.5 43.7002 108.3 44.7002 109.5 44.7002C110.1 44.7002 110.6 44.5002 111 43.9002L111.6 44.5002C111.2 45.1002 110.5 45.6002 109.4 45.6002C107.6 45.5002 106.4 44.2002 106.4 42.4002Z" fill="#08090A"/>
<path d="M112.8 45.4004V39.4004H113.8V44.0004L116.9 39.4004H117.8V45.4004H116.9V40.7004L113.7 45.4004H112.8Z" fill="#08090A"/>
<path d="M119.7 45.4004V39.4004H120.6V41.9004H123.7V39.4004H124.7V45.4004H123.7V42.7004H120.6V45.4004H119.7Z" fill="#08090A"/>
<path d="M130.7 40.2004H127.4V45.4004H126.5V39.4004H130.7V40.2004Z" fill="#08090A"/>
<path d="M134.7 42.0996C134.7 39.1996 135.8 37.9996 137.9 37.6996C139.2 37.4996 139.6 37.2996 139.6 37.0996H140.5C140.5 38.0996 139.1 38.2996 138.2 38.4996C136.4 38.6996 135.9 39.4996 135.7 40.4996C136.1 39.7996 136.9 39.1996 137.9 39.1996C139.6 39.1996 140.7 40.5996 140.7 42.2996C140.7 43.9996 139.6 45.4996 137.7 45.4996C135.9 45.4996 134.7 44.0996 134.7 42.0996ZM139.7 42.3996C139.7 41.1996 139 40.0996 137.7 40.0996C136.4 40.0996 135.7 41.1996 135.7 42.3996C135.7 43.5996 136.4 44.6996 137.7 44.6996C139 44.6996 139.7 43.5996 139.7 42.3996Z" fill="#08090A"/>
<path d="M142 46.9004C142.1 47.0004 142.4 47.0004 142.5 47.0004C142.9 47.0004 143.2 46.9004 143.4 46.4004L143.8 45.5004L141.3 39.4004H142.3L144.3 44.3004L146.3 39.4004H147.3L144.3 46.6004C143.9 47.5004 143.3 47.8004 142.6 47.8004C142.4 47.8004 142.1 47.7004 141.9 47.7004L142 46.9004Z" fill="#08090A"/>
<path d="M152.2 45.4004L150.4 42.9004L148.6 45.4004H147.5L149.8 42.3004L147.6 39.4004H148.7L150.4 41.7004L152 39.4004H153.1L150.9 42.3004L153.2 45.4004H152.2Z" fill="#08090A"/>
<path d="M158.5 40.2004H155.2V45.4004H154.3V39.4004H158.5V40.2004Z" fill="#08090A"/>
<path d="M163.4 45.4002V44.7002C162.9 45.3002 162.2 45.5002 161.4 45.5002C160.4 45.5002 159.3 44.8002 159.3 43.5002C159.3 42.1002 160.4 41.5002 161.4 41.5002C162.2 41.5002 162.9 41.7002 163.4 42.3002V41.2002C163.4 40.4002 162.8 40.0002 161.9 40.0002C161.2 40.0002 160.6 40.2002 160 40.8002L159.6 40.2002C160.2 39.5002 161 39.2002 162 39.2002C163.2 39.2002 164.3 39.8002 164.3 41.2002V45.3002L163.4 45.4002ZM163.4 44.1002V43.0002C163 42.5002 162.4 42.3002 161.7 42.3002C160.8 42.3002 160.2 42.9002 160.2 43.6002C160.2 44.3002 160.8 44.9002 161.7 44.9002C162.4 44.8002 163.1 44.6002 163.4 44.1002Z" fill="#08090A"/>
<path d="M165.5 44.8004C166.1 44.8004 166.4 44.2004 166.6 42.4004L167 39.4004H171.1V45.4004H170.2V40.2004H167.8L167.6 42.4004C167.4 44.6004 166.7 45.5004 165.6 45.5004L165.5 44.8004Z" fill="#08090A"/>
<path d="M174.1 45.4004V40.2004H172.4V39.4004H176.8V40.2004H175.1V45.4004H174.1Z" fill="#08090A"/>
<path d="M177.7 42.4002C177.7 40.7002 178.9 39.2002 180.7 39.2002C182.5 39.2002 183.5 40.6002 183.5 42.4002V42.6002H178.7C178.8 43.7002 179.6 44.6002 180.9 44.6002C181.6 44.6002 182.3 44.4002 182.8 43.9002L183.2 44.5002C182.6 45.1002 181.8 45.4002 180.9 45.4002C178.9 45.5002 177.7 44.2002 177.7 42.4002ZM180.6 40.0002C179.3 40.0002 178.7 41.1002 178.6 42.0002H182.5C182.5 41.1002 182 40.0002 180.6 40.0002Z" fill="#08090A"/>
<path d="M185.9 44.4998V47.6998H185V39.4998H185.9V40.3998C186.3 39.7998 187.1 39.2998 187.9 39.2998C189.4 39.2998 190.6 40.4998 190.6 42.4998C190.6 44.3998 189.5 45.6998 187.9 45.6998C187.1 45.4998 186.4 45.0998 185.9 44.4998ZM189.6 42.3998C189.6 41.0998 188.9 40.0998 187.7 40.0998C187 40.0998 186.2 40.4998 185.9 40.9998V43.6998C186.2 44.1998 187 44.6998 187.7 44.6998C188.9 44.6998 189.6 43.6998 189.6 42.3998Z" fill="#08090A"/>
<path d="M192.1 45.4004V39.4004H193V44.0004L196.1 39.4004H197V45.4004H196.1V40.7004L192.9 45.4004H192.1Z" fill="#08090A"/>
<path d="M198.9 45.4004V39.4004H199.8V44.0004L202.9 39.4004H203.9V45.4004H202.9V40.7004L199.8 45.4004H198.9Z" fill="#08090A"/>
</g>
<defs>
<clipPath id="clip0_0_174">
<rect width="259.9" height="52.8" fill="white"/>
</clipPath>
</defs>
</svg>
